<?xml version="1.0" encoding="utf-8"?><svg viewBox="0 0 858 469" xmlns="http://www.w3.org/2000/svg" xmlns:xlink="http://www.w3.org/1999/xlink"><style>:root>svg{display:none}:root>svg:target{display:block}</style><svg viewBox="0 0 11 17" fill="none" id="arrow-black" xmlns="http://www.w3.org/2000/svg"><path d="M9.328 1.72L2 8.526l7.328 6.804" stroke="#20242C" stroke-width="2.2" stroke-linecap="round" stroke-linejoin="round"/></svg><svg fill="none" viewBox="0 0 8 14" id="arrow-blue" xmlns="http://www.w3.org/2000/svg"><path d="M1 1l6 6-6 6" stroke="#4067F0" stroke-width="2" stroke-linecap="round" stroke-linejoin="round"/></svg><svg viewBox="0 0 8 14" fill="none" id="arrow-white" xmlns="http://www.w3.org/2000/svg"><path d="M1 1l6 6-6 6" stroke="#fff" stroke-width="2" stroke-linecap="round" stroke-linejoin="round"/></svg><svg fill="none" viewBox="0 0 352 469" id="cart-active" xmlns="http://www.w3.org/2000/svg"><path d="M322 467.9c15.961 0 28.9-12.939 28.9-28.9V260.347a42.525 42.525 0 00-18.936-35.382c-4.97-3.313-4.97-10.617 0-13.93a42.525 42.525 0 0018.936-35.382V30c0-15.961-12.939-28.9-28.9-28.9H30C14.039 1.1 1.1 14.039 1.1 30v143.208c0 15.39 8.695 29.46 22.461 36.343 6.963 3.481 6.963 13.417 0 16.898A40.633 40.633 0 001.1 262.792V439c0 15.961 12.939 28.9 28.9 28.9h292z" fill="#fff" stroke="#4067F0" stroke-width="2.2"/></svg><svg fill="none" viewBox="0 0 858 264" id="cart-active-justify" xmlns="http://www.w3.org/2000/svg"><path d="M856.4 30c0-15.961-12.939-28.9-28.9-28.9H334.985a38.9 38.9 0 00-27.989 11.885l-6.117 6.338a6.1 6.1 0 01-8.779 0l-6.117-6.338A38.901 38.901 0 00257.994 1.1H30C14.039 1.1 1.1 14.039 1.1 30v204c0 15.961 12.939 28.9 28.9 28.9h224.554a38.898 38.898 0 0031.51-16.09l5.484-7.576c2.436-3.364 7.447-3.364 9.883 0l5.484 7.576a38.898 38.898 0 0031.51 16.09H827.5c15.961 0 28.9-12.939 28.9-28.9V30z" fill="#fff" stroke="#4067F0" stroke-width="2.2"/></svg><svg fill="none" viewBox="0 0 388 405" id="cart-active-justify-mob" xmlns="http://www.w3.org/2000/svg"><path d="M371.543 403.686c8.231 0 14.903-6.672 14.903-14.902V224.272a22.033 22.033 0 00-9.812-18.333c-2.734-1.823-2.734-5.842 0-7.665a22.033 22.033 0 009.812-18.333V15.703C386.446 7.472 379.774.8 371.543.8H15.703C7.473.8.8 7.472.8 15.703v164.571c0 7.12 3.666 13.738 9.701 17.516 3.188 1.995 3.188 6.638 0 8.633a20.665 20.665 0 00-9.7 17.516v164.845c0 8.23 6.671 14.902 14.902 14.902h355.84z" fill="#fff" stroke="#4067F0" stroke-width="1.6"/></svg><svg fill="none" viewBox="0 0 184 290" id="cart-active-mob" xmlns="http://www.w3.org/2000/svg"><path d="M168.297 289.2c8.231 0 14.903-6.672 14.903-14.903V156.013a21.996 21.996 0 00-9.798-18.304c-2.731-1.82-2.731-5.834 0-7.654a21.995 21.995 0 009.798-18.303v-96.05C183.2 7.473 176.528.8 168.297.8H15.703C7.473.8.8 7.472.8 15.703v94.77a21.008 21.008 0 0011.616 18.792c3.805 1.902 3.805 7.332 0 9.234A21.01 21.01 0 00.8 157.291v117.006c0 8.231 6.672 14.903 14.903 14.903h152.594z" fill="#fff" stroke="#4067F0" stroke-width="1.6"/></svg><svg viewBox="0 0 17 16" fill="none" id="categories" xmlns="http://www.w3.org/2000/svg"><path d="M12.882 5.92a2.46 2.46 0 100-4.92 2.46 2.46 0 000 4.92zM3.96 5.92a2.46 2.46 0 100-4.92 2.46 2.46 0 000 4.92zM12.882 14.84a2.46 2.46 0 100-4.92 2.46 2.46 0 000 4.92zM3.96 14.84a2.46 2.46 0 100-4.92 2.46 2.46 0 000 4.92z" stroke="#BECDFF" stroke-width="2" stroke-miterlimit="10" stroke-linecap="round" stroke-linejoin="round"/></svg><svg viewBox="0 0 24 24" fill="none" id="categories-mob" xmlns="http://www.w3.org/2000/svg"><path d="M22 6.5h-6M6 6.5H2M10 10a3.5 3.5 0 100-7 3.5 3.5 0 000 7zM22 17.5h-4M8 17.5H2M14 21a3.5 3.5 0 100-7 3.5 3.5 0 000 7z" stroke="#fff" stroke-width="2" stroke-miterlimit="10" stroke-linecap="round" stroke-linejoin="round"/></svg><svg fill="none" viewBox="0 0 19 15" id="check-black" xmlns="http://www.w3.org/2000/svg"><path d="M2 8.875L6.09 13 17 2" stroke="#292D32" stroke-width="2.2" stroke-linecap="round" stroke-linejoin="round"/></svg><svg fill="none" viewBox="0 0 15 11" id="check-blue" xmlns="http://www.w3.org/2000/svg"><path d="M2 5.482L5.49 9 13 2" stroke="#5071E6" stroke-width="3" stroke-linecap="round" stroke-linejoin="round"/></svg><svg fill="none" viewBox="0 0 24 21" id="favorite" xmlns="http://www.w3.org/2000/svg"><path d="M12.62 19.71c-.34.12-.9.12-1.24 0C8.48 18.72 2 14.59 2 7.59 2 4.5 4.49 2 7.56 2c1.82 0 3.43.88 4.44 2.24A5.53 5.53 0 0116.44 2C19.51 2 22 4.5 22 7.59c0 7-6.48 11.13-9.38 12.12z" stroke="#fff" stroke-width="2.3" stroke-linecap="round" stroke-linejoin="round"/></svg><svg fill="none" viewBox="0 0 24 21" id="favorite-fill" xmlns="http://www.w3.org/2000/svg"><path d="M12.62 19.71c-.34.12-.9.12-1.24 0C8.48 18.72 2 14.59 2 7.59 2 4.5 4.49 2 7.56 2c1.82 0 3.43.88 4.44 2.24A5.53 5.53 0 0116.44 2C19.51 2 22 4.5 22 7.59c0 7-6.48 11.13-9.38 12.12z" fill="#fff" stroke="#fff" stroke-width="2.3" stroke-linecap="round" stroke-linejoin="round"/></svg><svg viewBox="0 0 22 21" fill="none" id="like" xmlns="http://www.w3.org/2000/svg"><path d="M6.898 17.514V6.546c0-.432.13-.853.367-1.21L10.212.956c.464-.701 1.62-1.198 2.602-.83 1.057.355 1.759 1.543 1.532 2.6l-.56 3.53c-.044.324.042.616.226.842.183.205.453.335.745.335h4.436c.853 0 1.587.345 2.018.95.41.583.486 1.338.216 2.105l-2.655 8.084C18.437 19.91 16.98 21 15.534 21h-4.21c-.723 0-1.738-.248-2.202-.712L7.74 19.219a2.142 2.142 0 01-.842-1.706zM3.465 4.442H2.353C.68 4.442 0 5.09 0 6.688v10.858c0 1.598.68 2.246 2.353 2.246h1.112c1.673 0 2.353-.648 2.353-2.246V6.688c0-1.598-.68-2.246-2.353-2.246z" fill="#5071E6"/></svg><svg viewBox="0 0 15 18" fill="none" id="location" xmlns="http://www.w3.org/2000/svg"><path d="M14.318 5.482C13.46 1.702 10.162 0 7.265 0h-.008C4.37 0 1.064 1.694.205 5.474-.753 9.695 1.833 13.27 4.173 15.52c.867.834 1.98 1.865 3.092 1.865 1.113 0 2.226-1.03 3.085-1.865 2.34-2.25 4.925-5.817 3.968-10.04zM7.265 9.58a2.577 2.577 0 110-5.154 2.577 2.577 0 010 5.154z" fill="#9EA6C4"/></svg><svg viewBox="0 0 233 69" fill="none" id="logo" xmlns="http://www.w3.org/2000/svg"><path d="M208.713 67.818c12.822 0 18.684-5.275 18.684-16.78V27.08h-13.116v23.96c0 4.543-1.758 6.594-5.568 6.594-3.737 0-5.496-2.051-5.496-6.594v-23.96h-13.115v23.96c0 11.504 5.861 16.78 18.611 16.78z" fill="#3278FF"/><path d="M18.032 37.32h-.001c-2.802-1.253-5.39-2.417-7.287-3.977-1.868-1.537-3.042-3.437-3.042-6.19v-.22c0-2.53 1-4.585 2.74-6.016 1.749-1.44 4.283-2.277 7.385-2.277 3.204 0 6.87.927 10.857 2.74l.661.3.045-.725.293-4.762.022-.359-.332-.135c-3.652-1.49-8.04-2.309-11.766-2.309-4.748 0-8.74 1.384-11.551 3.872-2.818 2.493-4.41 6.059-4.41 10.33 0 4.406 1.72 7.414 4.253 9.67 2.5 2.228 5.795 3.722 8.927 5.142l.009.004s0 0 0 0c2.91 1.327 5.68 2.6 7.732 4.35 2.024 1.725 3.332 3.901 3.332 7.065v.22c0 2.792-1.076 5.066-2.963 6.651-1.895 1.593-4.647 2.521-8.04 2.521-3.794 0-8.113-1.075-12.23-3.17l-.657-.334-.067.735-.44 4.836-.033.366.34.14c3.94 1.636 8.84 2.677 13.16 2.677 5.11 0 9.36-1.437 12.34-4.083 2.985-2.652 4.646-6.477 4.646-11.145 0-4.841-1.845-8.106-4.535-10.52-2.626-2.357-6.055-3.898-9.263-5.34l-.125-.056zm39.841 30.173l.363-.103v-5.175l-.658.22c-1.259.42-2.89.634-4.165.634-1.654 0-2.811-.495-3.57-1.42-.775-.945-1.206-2.422-1.206-4.528V32.195h9.599v-5.03h-9.599V16.778l-.553.06-4.763.513-.447.048V27.166h-6.448v5.03h6.448v25.657c0 3.429.725 6.063 2.296 7.842 1.583 1.79 3.94 2.623 6.997 2.623 1.73 0 3.609-.226 5.706-.825zm36.538-1.78l.334-.141-.032-.362-.366-4.176-.063-.715-.649.306c-3.828 1.806-7.712 2.737-11.217 2.737-4.11 0-7.255-1.23-9.408-3.643-2.09-2.343-3.307-5.87-3.486-10.671h26.803v-1.746c0-6.792-1.308-12.044-3.935-15.61-2.646-3.592-6.58-5.406-11.659-5.406-5.373 0-9.682 1.98-12.636 5.684-2.942 3.69-4.496 9.034-4.496 15.699 0 6.663 1.554 11.839 4.668 15.352 3.124 3.524 7.747 5.297 13.71 5.297 4.174 0 8.417-.894 12.432-2.604zm16.939 1.726h.5v-24.9c0-3.374 1.064-6.138 2.885-8.054 1.818-1.914 4.43-3.022 7.606-3.022 2.861 0 4.979.879 6.391 2.502 1.422 1.635 2.194 4.101 2.194 7.402V67.44h5.836V40.854c0-4.616-1.116-8.268-3.321-10.771-2.214-2.514-5.461-3.797-9.562-3.797-5.221 0-9.576 2.084-12.176 5.74v-4.86h-5.689v40.273h5.336zm62.809-55.454v20.587c-1.138-1.85-2.559-3.303-4.258-4.344-2.126-1.302-4.656-1.942-7.552-1.942-5.085 0-9.106 1.91-11.839 5.558-2.718 3.627-4.121 8.914-4.121 15.605 0 6.58 1.366 11.792 4.008 15.372 2.659 3.602 6.57 5.497 11.513 5.497 3.123 0 5.825-.754 8.072-2.255 1.803-1.204 3.292-2.876 4.47-4.985v6.361h5.469V11.485h-5.762v.5zm-83.833 32.4H69.612c.275-4.298 1.378-7.577 3.158-9.794 1.838-2.288 4.436-3.495 7.743-3.495 3.16 0 5.508 1.131 7.124 3.365 1.577 2.181 2.494 5.467 2.689 9.923zm72.683 18.903c-3.438 0-6.083-1.357-7.888-3.944-1.824-2.612-2.823-6.526-2.823-11.675v-.66c0-5.109 1.034-9.04 2.912-11.68 1.86-2.618 4.58-4.013 8.092-4.013 3.368 0 6.057 1.343 7.918 3.787 1.873 2.46 2.939 6.078 2.939 10.66v2.931c0 4.58-1.101 8.234-3.028 10.731-1.917 2.483-4.681 3.863-8.122 3.863z" fill="#2C3036" stroke="#2C3036"/><path d="M190.25 11.983h37.369v10.258H190.25V11.983z" fill="#3278FF"/><path d="M195.383 18.69l5.324-4.096-.165-.066a4.756 4.756 0 01-2.19-1.777l-2.969 5.938zM203.265 3.045c-.927 1.158-1.272 4.155.838 4.741 1.989 1.561 3.667.81 4.674-.18.269-.264.254-.552.353-.907.306-1.096-.446-2.227-1.669-3.104-.931-.668-2.15-1.05-3.079-.874-.594.112-.755-.127-1.117.324z" fill="#CADCFF"/><path d="M198.558 7.222c-.974 1.622.649 4.193 2.663 5.402 1.685 1.012 3.562 1.01 4.701.032.453-.389 1.145-.646 1.236-1.237.224-1.46-.793-3.701-2.408-4.671-1.229-.738-3.647-.904-4.759-.55-.71.226-1.053.39-1.433 1.024z" fill="#CADCFF"/><path fill-rule="evenodd" clip-rule="evenodd" d="M201.222 12.63c-2.014-1.21-2.857-3.506-1.883-5.129.38-.632.817-1.234 1.526-1.461-1.369.095-2.576.724-3.243 1.833-1.219 2.03-.164 4.904 2.356 6.418 2.521 1.513 5.553 1.094 6.773-.936.478-.796.606-1.722.434-2.644-.213.996-.946 1.893-1.859 2.344-1.135.56-2.687.425-4.104-.425z" fill="#2C3036"/><ellipse rx="3.618" ry="2.858" transform="matrix(-.81249 -.58298 -.62515 .7805 206.298 5.009)" fill="#2C3036"/><path fill-rule="evenodd" clip-rule="evenodd" d="M207.723 8.293l-1.258 2.516a2.964 2.964 0 01-1.466 1.664c-.943.464-2.232.353-3.408-.353-1.673-1.005-2.373-2.912-1.564-4.26.226-.377.478-.74.819-.986l1.737-1.736c.128 1.012.813 2.044 1.905 2.7 1.106.664 2.309.812 3.235.455z" fill="#3278FF"/><path d="M217.36 18.69l5.324-4.096-.165-.066a4.75 4.75 0 01-2.19-1.777l-2.969 5.938zM225.242 3.045c-.927 1.158-1.273 4.155.838 4.741 1.989 1.561 3.666.81 4.673-.18.27-.264.254-.552.353-.907.306-1.096-.445-2.227-1.668-3.104-.931-.668-2.151-1.05-3.08-.874-.594.112-.755-.127-1.116.324z" fill="#CADCFF"/><path d="M220.535 7.222c-.975 1.622.648 4.193 2.662 5.402 1.685 1.012 3.562 1.01 4.701.032.454-.389 1.146-.646 1.237-1.237.224-1.46-.793-3.701-2.408-4.671-1.229-.738-3.648-.904-4.759-.55-.71.226-1.053.39-1.433 1.024z" fill="#CADCFF"/><path fill-rule="evenodd" clip-rule="evenodd" d="M223.195 12.625c-2.015-1.21-2.858-3.506-1.883-5.129.379-.632.817-1.234 1.526-1.46-1.37.094-2.577.723-3.243 1.832-1.219 2.03-.165 4.904 2.356 6.418 2.521 1.514 5.553 1.094 6.772-.936.478-.796.607-1.722.435-2.644-.214.996-.946 1.894-1.86 2.344-1.135.56-2.687.426-4.103-.425z" fill="#2C3036"/><ellipse rx="3.618" ry="2.858" transform="matrix(-.81249 -.58298 -.62515 .7805 228.274 5.009)" fill="#2C3036"/><path fill-rule="evenodd" clip-rule="evenodd" d="M229.703 8.29l-1.273 2.546c-.246.7-.794 1.31-1.456 1.637-.943.464-2.232.353-3.409-.353-1.672-1.005-2.372-2.912-1.563-4.26.23-.382.485-.752.835-.997l1.716-1.717c.131 1.01.815 2.039 1.904 2.693 1.111.667 2.319.813 3.246.451z" fill="#3278FF"/></svg><svg fill="none" viewBox="0 0 29 31" id="map-marker" xmlns="http://www.w3.org/2000/svg"><g filter="url(#aqfilter0_b_653_11520)"><circle cx="13.5" cy="14.054" r="13.074" fill="#8196DF" fill-opacity=".15"/></g><g filter="url(#aqfilter1_d_653_11520)"><circle cx="13.5" cy="14.054" r="8.32" fill="#4067F0"/><circle cx="13.5" cy="14.054" r="7.131" stroke="#F3F6FF" stroke-width="2.377"/></g><defs><filter id="aqfilter0_b_653_11520" x="-11.46" y="-10.906" width="49.92" height="49.92" filterUnits="userSpaceOnUse" color-interpolation-filters="sRGB"><feFlood flood-opacity="0" result="BackgroundImageFix"/><feGaussianBlur in="BackgroundImage" stdDeviation="5.943"/><feComposite in2="SourceAlpha" operator="in" result="effect1_backgroundBlur_653_11520"/><feBlend in="SourceGraphic" in2="effect1_backgroundBlur_653_11520" result="shape"/></filter><filter id="aqfilter1_d_653_11520" x="2.803" y="4.546" width="26.149" height="26.148" filterUnits="userSpaceOnUse" color-interpolation-filters="sRGB"><feFlood flood-opacity="0" result="BackgroundImageFix"/><feColorMatrix in="SourceAlpha" values="0 0 0 0 0 0 0 0 0 0 0 0 0 0 0 0 0 0 127 0" result="hardAlpha"/><feOffset dx="2.377" dy="3.566"/><feGaussianBlur stdDeviation="2.377"/><feComposite in2="hardAlpha" operator="out"/><feColorMatrix values="0 0 0 0 0.608281 0 0 0 0 0.684926 0 0 0 0 0.954167 0 0 0 1 0"/><feBlend in2="BackgroundImageFix" result="effect1_dropShadow_653_11520"/><feBlend in="SourceGraphic" in2="effect1_dropShadow_653_11520" result="shape"/></filter></defs></svg><svg fill="none" viewBox="0 0 70 96" id="map-marker2" xmlns="http://www.w3.org/2000/svg"><path d="M70 35.95c0 17.677-13.294 32.329-29.674 34.974-.76.425-3.043 2.685-5.326 8.71-3.804-8.285-4.565-8.285-5.326-8.71C13.294 68.279 0 53.627 0 35.95 0 16.399 16.09.55 35 .55s35 15.849 35 35.4z" fill="#2A83E8"/><path d="M70 35.95c0 17.677-13.294 32.329-29.674 34.974-.76.425-3.043 2.685-5.326 8.71-3.804-8.285-4.565-8.285-5.326-8.71C13.294 68.279 0 53.627 0 35.95 0 16.399 16.09.55 35 .55s35 15.849 35 35.4z" fill="url(#arpaint0_linear_621_15848)"/><path d="M35 44.234c5.463 0 9.892-4.384 9.892-9.791 0-5.408-4.429-9.792-9.892-9.792-5.463 0-9.891 4.384-9.891 9.792 0 5.407 4.428 9.791 9.891 9.791zM35.254 95.45c3.361 0 6.086-2.697 6.086-6.025 0-3.328-2.725-6.026-6.087-6.026-3.361 0-6.087 2.698-6.087 6.026s2.726 6.025 6.088 6.025z" fill="#fff"/><path d="M35.127 92.438c1.68 0 3.043-1.35 3.043-3.013 0-1.664-1.362-3.013-3.043-3.013-1.68 0-3.044 1.349-3.044 3.013s1.363 3.013 3.044 3.013z" fill="#375DE2"/><defs><linearGradient id="arpaint0_linear_621_15848" x1="50" y1="101.5" x2="86.436" y2="29.425" gradientUnits="userSpaceOnUse"><stop stop-color="#4067F0"/><stop offset="1" stop-color="#375DE2"/></linearGradient></defs></svg><svg fill="none" viewBox="0 0 15 15" id="menu" xmlns="http://www.w3.org/2000/svg"><path d="M11.882 5.92a2.96 2.96 0 100-5.92 2.96 2.96 0 000 5.92zM2.96 5.92a2.96 2.96 0 100-5.92 2.96 2.96 0 000 5.92zM11.882 14.84a2.96 2.96 0 100-5.92 2.96 2.96 0 000 5.92zM2.96 14.84a2.96 2.96 0 100-5.92 2.96 2.96 0 000 5.92z" fill="#4067F0"/></svg><svg viewBox="0 0 22 14" fill="none" id="menu-btn" xmlns="http://www.w3.org/2000/svg"><path d="M1 13h13M1 7h20M1 1h16" stroke="#20242C" stroke-width="2" stroke-linecap="round" stroke-linejoin="round"/></svg><svg viewBox="0 0 24 24" fill="none" id="menu-mob-announcements" xmlns="http://www.w3.org/2000/svg"><g clip-path="url(#auclip0_220_3)"><g filter="url(#aufilter0_d_220_3)"><path d="M22 8.52V3.98C22 2.57 21.36 2 19.77 2h-4.04c-1.59 0-2.23.57-2.23 1.98v4.53c0 1.42.64 1.98 2.23 1.98h4.04c1.59.01 2.23-.56 2.23-1.97z" fill="#4067F0"/></g><g filter="url(#aufilter1_d_220_3)"><path d="M22 19.77v-4.04c0-1.59-.64-2.23-2.23-2.23h-4.04c-1.59 0-2.23.64-2.23 2.23v4.04c0 1.59.64 2.23 2.23 2.23h4.04c1.59 0 2.23-.64 2.23-2.23z" fill="#4067F0"/></g><g filter="url(#aufilter2_d_220_3)"><path d="M10.5 8.52V3.98C10.5 2.57 9.86 2 8.27 2H4.23C2.64 2 2 2.57 2 3.98v4.53c0 1.42.64 1.98 2.23 1.98h4.04c1.59.01 2.23-.56 2.23-1.97z" fill="#4067F0"/></g><g filter="url(#aufilter3_d_220_3)"><path d="M10.5 19.77v-4.04c0-1.59-.64-2.23-2.23-2.23H4.23c-1.59 0-2.23.64-2.23 2.23v4.04C2 21.36 2.64 22 4.23 22h4.04c1.59 0 2.23-.64 2.23-2.23z" fill="#4067F0"/></g></g><defs><filter id="aufilter0_d_220_3" x="-12.285" y="-23.785" width="77.26" height="77.25" filterUnits="userSpaceOnUse" color-interpolation-filters="sRGB"><feFlood flood-opacity="0" result="BackgroundImageFix"/><feColorMatrix in="SourceAlpha" values="0 0 0 0 0 0 0 0 0 0 0 0 0 0 0 0 0 0 127 0" result="hardAlpha"/><feOffset dx="8.595" dy="8.595"/><feGaussianBlur stdDeviation="17.19"/><feColorMatrix values="0 0 0 0 0.15375 0 0 0 0 0.407475 0 0 0 0 0.9 0 0 0 0.25 0"/><feBlend in2="BackgroundImageFix" result="effect1_dropShadow_220_3"/><feBlend in="SourceGraphic" in2="effect1_dropShadow_220_3" result="shape"/></filter><filter id="aufilter1_d_220_3" x="-12.285" y="-12.285" width="77.26" height="77.26" filterUnits="userSpaceOnUse" color-interpolation-filters="sRGB"><feFlood flood-opacity="0" result="BackgroundImageFix"/><feColorMatrix in="SourceAlpha" values="0 0 0 0 0 0 0 0 0 0 0 0 0 0 0 0 0 0 127 0" result="hardAlpha"/><feOffset dx="8.595" dy="8.595"/><feGaussianBlur stdDeviation="17.19"/><feColorMatrix values="0 0 0 0 0.15375 0 0 0 0 0.407475 0 0 0 0 0.9 0 0 0 0.25 0"/><feBlend in2="BackgroundImageFix" result="effect1_dropShadow_220_3"/><feBlend in="SourceGraphic" in2="effect1_dropShadow_220_3" result="shape"/></filter><filter id="aufilter2_d_220_3" x="-23.785" y="-23.785" width="77.26" height="77.25" filterUnits="userSpaceOnUse" color-interpolation-filters="sRGB"><feFlood flood-opacity="0" result="BackgroundImageFix"/><feColorMatrix in="SourceAlpha" values="0 0 0 0 0 0 0 0 0 0 0 0 0 0 0 0 0 0 127 0" result="hardAlpha"/><feOffset dx="8.595" dy="8.595"/><feGaussianBlur stdDeviation="17.19"/><feColorMatrix values="0 0 0 0 0.15375 0 0 0 0 0.407475 0 0 0 0 0.9 0 0 0 0.25 0"/><feBlend in2="BackgroundImageFix" result="effect1_dropShadow_220_3"/><feBlend in="SourceGraphic" in2="effect1_dropShadow_220_3" result="shape"/></filter><filter id="aufilter3_d_220_3" x="-23.785" y="-12.285" width="77.26" height="77.26" filterUnits="userSpaceOnUse" color-interpolation-filters="sRGB"><feFlood flood-opacity="0" result="BackgroundImageFix"/><feColorMatrix in="SourceAlpha" values="0 0 0 0 0 0 0 0 0 0 0 0 0 0 0 0 0 0 127 0" result="hardAlpha"/><feOffset dx="8.595" dy="8.595"/><feGaussianBlur stdDeviation="17.19"/><feColorMatrix values="0 0 0 0 0.15375 0 0 0 0 0.407475 0 0 0 0 0.9 0 0 0 0.25 0"/><feBlend in2="BackgroundImageFix" result="effect1_dropShadow_220_3"/><feBlend in="SourceGraphic" in2="effect1_dropShadow_220_3" result="shape"/></filter><clipPath id="auclip0_220_3"><path fill="#fff" d="M0 0h24v24H0z"/></clipPath></defs></svg><svg viewBox="0 0 24 24" fill="none" id="menu-mob-favorite" xmlns="http://www.w3.org/2000/svg"><path d="M12.62 20.914c-.34.115-.9.115-1.24 0C8.48 19.968 2 16.024 2 9.339 2 6.388 4.49 4 7.56 4c1.82 0 3.43.84 4.44 2.14C13.01 4.84 14.63 4 16.44 4 19.51 4 22 6.388 22 9.339c0 6.685-6.48 10.63-9.38 11.575z" fill="#CBD0E4"/></svg><svg viewBox="0 0 24 24" fill="none" id="menu-mob-like" xmlns="http://www.w3.org/2000/svg"><path d="M8.39 18.49V8.33c0-.4.12-.79.34-1.12l2.73-4.06c.43-.65 1.5-1.11 2.41-.77.98.33 1.63 1.43 1.42 2.41l-.52 3.27c-.04.3.04.57.21.78.17.19.42.31.69.31h4.11c.79 0 1.47.32 1.87.88.38.54.45 1.24.2 1.95l-2.46 7.49c-.31 1.24-1.66 2.25-3 2.25h-3.9c-.67 0-1.61-.23-2.04-.66l-1.28-.99c-.49-.37-.78-.96-.78-1.58zM5.21 6.38H4.18C2.63 6.38 2 6.98 2 8.46v10.06c0 1.48.63 2.08 2.18 2.08h1.03c1.55 0 2.18-.6 2.18-2.08V8.46c0-1.48-.63-2.08-2.18-2.08z" fill="#CBD0E4"/></svg><svg viewBox="0 0 24 24" fill="none" id="menu-mob-message" xmlns="http://www.w3.org/2000/svg"><path d="M17 2H7C4.24 2 2 4.231 2 6.982v6.984c0 2.751 2.24 4.982 5 4.982h1.5c.27 0 .63.18.8.4l1.5 1.992c.66.88 1.74.88 2.4 0l1.5-1.991c.19-.25.49-.4.8-.4H17c2.76 0 5-2.232 5-4.983V6.982C22 4.232 19.76 2 17 2zM8 12.005c-.56 0-1-.45-1-1s.45-1.001 1-1.001 1 .45 1 1-.44 1.001-1 1.001zm4 0c-.56 0-1-.45-1-1s.45-1.001 1-1.001 1 .45 1 1-.44 1.001-1 1.001zm4 0c-.56 0-1-.45-1-1s.45-1.001 1-1.001 1 .45 1 1-.44 1.001-1 1.001z" fill="#CBD0E4"/></svg><svg fill="none" viewBox="0 0 24 25" id="menu-mob-notification" xmlns="http://www.w3.org/2000/svg"><path d="M19.342 15.4l-1-1.66c-.21-.37-.4-1.07-.4-1.48V9.73a5.91 5.91 0 00-3.37-5.33 2.926 2.926 0 00-2.58-1.49c-1.09 0-2.07.59-2.59 1.52-1.95.97-3.3 2.98-3.3 5.3v2.53c0 .41-.19 1.11-.4 1.47l-1.01 1.67c-.4.67-.49 1.41-.24 2.09.24.67.81 1.19 1.55 1.44 1.94.66 3.98.98 6.02.98 2.04 0 4.08-.32 6.02-.97.7-.23 1.24-.76 1.5-1.45s.19-1.45-.2-2.09zM14.83 20.92A3.014 3.014 0 0112 22.91c-.79 0-1.57-.32-2.12-.89-.32-.3-.56-.7-.7-1.11.13.02.26.03.4.05.23.03.47.06.71.08.57.05 1.15.08 1.73.08.57 0 1.14-.03 1.7-.08.21-.02.42-.03.62-.06l.49-.06z" fill="#CBD0E4"/></svg><svg fill="none" viewBox="0 0 17 17" id="menu-mob-plus" xmlns="http://www.w3.org/2000/svg"><path d="M8.5 3.542v9.917M3.543 8.5h9.917" stroke="#fff" stroke-width="2" stroke-linecap="round" stroke-linejoin="round"/></svg><svg fill="none" viewBox="0 0 24 24" id="menu-mob-setting" xmlns="http://www.w3.org/2000/svg"><path d="M20.1 9.22c-1.81 0-2.55-1.28-1.65-2.85.52-.91.21-2.07-.7-2.59l-1.73-.99c-.79-.47-1.81-.19-2.28.6l-.11.19c-.9 1.57-2.38 1.57-3.29 0l-.11-.19a1.641 1.641 0 00-2.26-.6l-1.73.99c-.91.52-1.22 1.69-.7 2.6.91 1.56.17 2.84-1.64 2.84-1.04 0-1.9.85-1.9 1.9v1.76c0 1.04.85 1.9 1.9 1.9 1.81 0 2.55 1.28 1.64 2.85-.52.91-.21 2.07.7 2.59l1.73.99c.79.47 1.81.19 2.28-.6l.11-.19c.9-1.57 2.38-1.57 3.29 0l.11.19c.47.79 1.49 1.07 2.28.6l1.73-.99c.91-.52 1.22-1.69.7-2.59-.91-1.57-.17-2.85 1.64-2.85 1.04 0 1.9-.85 1.9-1.9v-1.76a1.92 1.92 0 00-1.91-1.9zM12 15.25c-1.79 0-3.25-1.46-3.25-3.25S10.21 8.75 12 8.75s3.25 1.46 3.25 3.25-1.46 3.25-3.25 3.25z" fill="#CBD0E4"/></svg><svg fill="none" viewBox="0 0 23 23" id="message-white" xmlns="http://www.w3.org/2000/svg"><path d="M17.25.434H5.75C2.576.434 0 2.888 0 5.914v7.682c0 3.027 2.576 5.48 5.75 5.48h1.725c.31 0 .725.199.92.441l1.725 2.19c.759.969 2.001.969 2.76 0l1.725-2.19c.218-.275.563-.44.92-.44h1.725c3.174 0 5.75-2.454 5.75-5.48V5.913c0-3.026-2.576-5.48-5.75-5.48zM6.9 11.439c-.644 0-1.15-.495-1.15-1.1 0-.606.518-1.101 1.15-1.101.632 0 1.15.495 1.15 1.1 0 .606-.506 1.101-1.15 1.101zm4.6 0c-.644 0-1.15-.495-1.15-1.1 0-.606.518-1.101 1.15-1.101.633 0 1.15.495 1.15 1.1 0 .606-.506 1.101-1.15 1.101zm4.6 0c-.644 0-1.15-.495-1.15-1.1 0-.606.518-1.101 1.15-1.101.633 0 1.15.495 1.15 1.1 0 .606-.506 1.101-1.15 1.101z" fill="#E3E9FF"/></svg><svg fill="none" viewBox="0 0 17 2" id="rectangle" xmlns="http://www.w3.org/2000/svg"><g clip-path="url(#bcclip0_301_12)"><path fill="#C6CAD7" d="M10 0v2H7V0z"/></g><defs><clipPath id="bcclip0_301_12"><path fill="#fff" d="M0 0h17v2H0z"/></clipPath></defs></svg><svg fill="none" viewBox="0 0 18 17" id="search" xmlns="http://www.w3.org/2000/svg"><path d="M8.11 14.486a6.61 6.61 0 100-13.22 6.61 6.61 0 000 13.22zM16.11 15.877l-1.391-1.392" stroke="#fff" stroke-width="2" stroke-linecap="round" stroke-linejoin="round"/></svg><svg fill="none" viewBox="0 0 38 5" id="search-decor1" xmlns="http://www.w3.org/2000/svg"><g clip-path="url(#beclip0_301_12)"><path fill-rule="evenodd" clip-rule="evenodd" d="M144.5 0c18.225 0 33 14.775 33 33s-14.775 33-33 33H37.185c-1.108 0-2.2-.262-3.186-.765l-8.327-4.244a9.187 9.187 0 00-8.344 0l-1.377.702A39.502 39.502 0 01-1.985 66H-759c-18.225 0-33-14.775-33-33s14.775-33 33-33H-1.259c.42 0 .84.006 1.259.017V5h38V0h106.5zM37.056 0H0v.017a47.445 47.445 0 0115.681 3.11l2.249.86a10 10 0 007.14 0L34.047.555A8.427 8.427 0 0137.056 0z" fill="#E4E7F3"/></g><defs><clipPath id="beclip0_301_12"><path fill="#fff" d="M0 0h38v5H0z"/></clipPath></defs></svg><svg fill="none" viewBox="0 0 38 6" id="search-decor2" xmlns="http://www.w3.org/2000/svg"><g clip-path="url(#bfclip0_301_12)"><path fill-rule="evenodd" clip-rule="evenodd" d="M143.5-60c18.225 0 33 14.775 33 33s-14.775 33-33 33H38V0H20.944a9.195 9.195 0 00-.888 0H0v5.887A39.5 39.5 0 01-2.985 6H-760c-18.225 0-33-14.775-33-33s14.775-33 33-33H-2.259c5.79 0 11.532 1.06 16.94 3.127l2.249.86a10 10 0 007.14 0l8.977-3.432A8.426 8.426 0 0136.056-60H143.5zM0 5.887V6h36.185c-1.108 0-2.2-.262-3.186-.765L24.672.991A9.182 9.182 0 0020.944 0h-.888a9.182 9.182 0 00-3.728.991l-1.377.702A39.5 39.5 0 010 5.887z" fill="#E4E7F3"/></g><defs><clipPath id="bfclip0_301_12"><path fill="#fff" d="M0 0h38v6H0z"/></clipPath></defs></svg><svg fill="none" viewBox="0 0 22 22" id="search-mob" xmlns="http://www.w3.org/2000/svg"><path d="M10 19a9 9 0 100-18 9 9 0 000 18zM21 21l-2-2" stroke="#BBBFCC" stroke-width="1.7" stroke-linecap="round" stroke-linejoin="round"/></svg><svg fill="none" viewBox="0 0 22 22" id="social-PA" xmlns="http://www.w3.org/2000/svg"><path d="M11.367 9.983c-.075-.011-.17-.011-.256 0a3.485 3.485 0 01-3.369-3.486A3.492 3.492 0 0111.24 3a3.499 3.499 0 013.496 3.497 3.492 3.492 0 01-3.368 3.486zM18.42 17.019c-.27 2.159-4.413 2.793-7.184 2.793-2.772 0-6.57-.634-7.185-2.793-.295-1.034.746-1.983 1.887-2.75 2.92-1.94 7.696-1.94 10.596 0 1.14.767 1.962 1.797 1.887 2.75z" fill="#4067F0" stroke="#4067F0" stroke-width="1.5" stroke-linecap="round" stroke-linejoin="round"/></svg><svg fill="none" viewBox="0 0 19 20" id="social-PA-mob" xmlns="http://www.w3.org/2000/svg"><path d="M9.385 9.77a4.385 4.385 0 100-8.77 4.385 4.385 0 000 8.77zM17.82 18.54c0-3.395-4.253-5.263-8.41-5.263S1 15.145 1 18.54" stroke="#20242C" stroke-width="2" stroke-linecap="round" stroke-linejoin="round"/></svg><svg fill="none" viewBox="0 0 22 22" id="social-favorite" xmlns="http://www.w3.org/2000/svg"><path d="M11.62 19.914c-.34.115-.9.115-1.24 0C7.48 18.968 1 15.024 1 8.339 1 5.388 3.49 3 6.56 3c1.82 0 3.43.84 4.44 2.14C12.01 3.84 13.63 3 15.44 3 18.51 3 21 5.388 21 8.339c0 6.685-6.48 10.63-9.38 11.575z" fill="#4067F0"/></svg><svg fill="none" viewBox="0 0 22 22" id="social-message" xmlns="http://www.w3.org/2000/svg"><path d="M15.582 1.833H6.415c-2.53 0-4.583 2.044-4.583 4.565V12.796c0 2.521 2.053 4.565 4.583 4.565H7.79c.248 0 .578.165.734.367l1.375 1.824c.605.807 1.595.807 2.2 0l1.375-1.824a.93.93 0 01.733-.367h1.375c2.53 0 4.583-2.044 4.583-4.565V6.398c0-2.52-2.053-4.565-4.583-4.565zM7.332 11a.914.914 0 01-.917-.917.92.92 0 01.917-.917.92.92 0 01.917.917.914.914 0 01-.917.917zm3.667 0a.914.914 0 01-.917-.917.92.92 0 01.917-.917.92.92 0 01.916.917A.914.914 0 0111 11zm3.666 0a.913.913 0 01-.916-.917.92.92 0 01.916-.917.92.92 0 01.917.917.913.913 0 01-.917.917z" fill="#4067F0"/></svg><svg fill="none" viewBox="0 0 22 22" id="social-notification" xmlns="http://www.w3.org/2000/svg"><path d="M17.73 13.282l-.917-1.521c-.192-.34-.366-.981-.366-1.357v-2.32a5.417 5.417 0 00-3.09-4.885 2.682 2.682 0 00-2.364-1.366c-1 0-1.898.54-2.375 1.393-1.787.89-3.025 2.732-3.025 4.859v2.319c0 .376-.174 1.017-.366 1.347L4.3 13.282c-.367.614-.45 1.293-.22 1.916.22.614.742 1.09 1.42 1.32 1.78.605 3.65.898 5.52.898 1.87 0 3.74-.293 5.517-.889a2.199 2.199 0 001.375-1.329 2.178 2.178 0 00-.183-1.916zM13.593 18.342A2.763 2.763 0 0111 20.166c-.724 0-1.44-.293-1.943-.816a2.531 2.531 0 01-.642-1.017c.12.018.238.027.367.046.21.027.43.055.65.073.523.046 1.055.073 1.586.073.523 0 1.045-.027 1.559-.073.192-.018.385-.027.568-.055.147-.018.293-.037.45-.055z" fill="#4067F0"/></svg><svg fill="none" viewBox="0 0 16 16" id="star" xmlns="http://www.w3.org/2000/svg"><path d="M7.276 1.26a.8.8 0 011.448 0l1.567 3.337a.8.8 0 00.602.45l3.57.55a.8.8 0 01.45 1.349l-2.63 2.694a.8.8 0 00-.218.688l.614 3.763a.8.8 0 01-1.177.828l-3.115-1.722a.8.8 0 00-.774 0l-3.115 1.722a.8.8 0 01-1.177-.829l.614-3.762a.8.8 0 00-.217-.688L1.087 6.946a.8.8 0 01.45-1.35l3.57-.548a.8.8 0 00.602-.451l1.567-3.338z" fill="#4067F0"/></svg><svg fill="none" viewBox="0 0 30 30" id="user-success" xmlns="http://www.w3.org/2000/svg"><g clip-path="url(#bnclip0_314_713)"><g filter="url(#bnfilter0_d_314_713)"><path d="M27.536 13.705l-1.77-2.01c-.327-.382-.603-1.095-.603-1.604V7.927c0-1.349-1.14-2.456-2.53-2.456h-2.229c-.524 0-1.272-.267-1.665-.585l-2.071-1.718c-.905-.751-2.386-.751-3.291 0l-2.098 1.718c-.393.318-1.127.585-1.652.585H7.36c-1.39 0-2.53 1.107-2.53 2.456v2.164c0 .496-.263 1.209-.59 1.59l-1.77 2.024c-.76.891-.76 2.316 0 3.182l1.77 2.023c.327.37.59 1.095.59 1.591v2.176c0 1.35 1.14 2.457 2.53 2.457H9.64c.512 0 1.259.267 1.652.585l2.072 1.718c.904.75 2.386.75 3.29 0l2.072-1.718c.393-.318 1.128-.585 1.652-.585h2.229c1.39 0 2.53-1.108 2.53-2.457v-2.163c0-.51.276-1.222.603-1.604l1.77-2.01c.8-.866.8-2.304.026-3.195z" fill="#34CE69"/><path d="M27.536 13.705l-1.77-2.01c-.327-.382-.603-1.095-.603-1.604V7.927c0-1.349-1.14-2.456-2.53-2.456h-2.229c-.524 0-1.272-.267-1.665-.585l-2.071-1.718c-.905-.751-2.386-.751-3.291 0l-2.098 1.718c-.393.318-1.127.585-1.652.585H7.36c-1.39 0-2.53 1.107-2.53 2.456v2.164c0 .496-.263 1.209-.59 1.59l-1.77 2.024c-.76.891-.76 2.316 0 3.182l1.77 2.023c.327.37.59 1.095.59 1.591v2.176c0 1.35 1.14 2.457 2.53 2.457H9.64c.512 0 1.259.267 1.652.585l2.072 1.718c.904.75 2.386.75 3.29 0l2.072-1.718c.393-.318 1.128-.585 1.652-.585h2.229c1.39 0 2.53-1.108 2.53-2.457v-2.163c0-.51.276-1.222.603-1.604l1.77-2.01c.8-.866.8-2.304.026-3.195z" stroke="#F7F9FE" stroke-width="2.7"/></g><path d="M20.405 11.308l-6.014 6.94-3.239-3.675" stroke="#fff" stroke-width="2.545" stroke-linecap="round" stroke-linejoin="round"/></g><defs><clipPath id="bnclip0_314_713"><path fill="#fff" d="M0 0h30v30H0z"/></clipPath><filter id="bnfilter0_d_314_713" x="-34.15" y="-33.444" width="121.445" height="120.626" filterUnits="userSpaceOnUse" color-interpolation-filters="sRGB"><feFlood flood-opacity="0" result="BackgroundImageFix"/><feColorMatrix in="SourceAlpha" values="0 0 0 0 0 0 0 0 0 0 0 0 0 0 0 0 0 0 127 0" result="hardAlpha"/><feOffset dx="11.566" dy="11.566"/><feGaussianBlur stdDeviation="23.133"/><feColorMatrix values="0 0 0 0 0.15375 0 0 0 0 0.45225 0 0 0 0 0.9 0 0 0 0.15 0"/><feBlend in2="BackgroundImageFix" result="effect1_dropShadow_314_713"/><feBlend in="SourceGraphic" in2="effect1_dropShadow_314_713" result="shape"/></filter></defs></svg><svg fill="none" viewBox="0 0 25 31" id="user-undefined" xmlns="http://www.w3.org/2000/svg"><path fill-rule="evenodd" clip-rule="evenodd" d="M4.871 7.298A7.304 7.304 0 0112.17 0a7.304 7.304 0 017.298 7.298 7.28 7.28 0 01-7.037 7.282h-.108a1.236 1.236 0 00-.337 0c-4.026-.138-7.114-3.334-7.114-7.282zM3.027 18.667c4.317-2.858 14.011-2.858 18.298 0 1.936 1.29 2.996 3.042 3.011 4.932 0 1.905-1.075 3.656-3.011 4.962-2.151 1.444-6.33 2.166-9.157 2.166s-7.006-.722-9.157-2.166C1.075 27.271 0 25.52 0 23.63c0-1.89 1.075-3.656 3.027-4.962z" fill="url(#bopaint0_radial_869_19671)"/><defs><radialGradient id="bopaint0_radial_869_19671" cx="0" cy="0" r="1" gradientUnits="userSpaceOnUse" gradientTransform="rotate(54.647 1.035 -1.341) scale(43.1966 53.5616)"><stop stop-color="#fff"/><stop offset=".569" stop-color="#E2E6F4"/><stop offset="1" stop-color="#fff"/></radialGradient></defs></svg></svg>